<svg xmlns="http://www.w3.org/2000/svg" viewBox="0 0 1024 1024" width="200" height="200"><path d="M268.214857 121.929143C268.214857 68.022857 311.881143 24.356571 365.714286 24.356571h292.571428c53.906286 0 97.572571 43.666286 97.572572 97.572572V219.428571h96.987428a46.811429 46.811429 0 0 1 0.877715 0H950.857143a48.786286 48.786286 0 0 1 0 97.499429h-52.077714l-42.349715 592.091429a97.499429 97.499429 0 0 1-97.28 90.624H264.850286c-51.2 0-93.622857-39.497143-97.28-90.624l-42.276572-592.091429H73.142857A48.786286 48.786286 0 0 1 73.142857 219.428571h97.133714a46.811429 46.811429 0 0 1 0.877715 0h97.060571V121.929143zM365.714286 219.428571h292.571428V121.929143H365.714286V219.428571zM223.085714 316.928l41.691429 585.142857h494.445714l41.691429-585.142857h-577.828572z m191.414857 97.572571c26.916571 0 48.786286 21.796571 48.786286 48.786286v292.571429a48.786286 48.786286 0 1 1-97.572571 0v-292.571429c0-26.989714 21.869714-48.786286 48.786285-48.786286z m195.072 0c26.916571 0 48.713143 21.796571 48.713143 48.786286v292.571429a48.786286 48.786286 0 1 1-97.499428 0v-292.571429c0-26.989714 21.796571-48.786286 48.786285-48.786286z" fill="currentColor"/></svg>
