<svg width="1024" height="1024" viewBox="0 0 1024 1024" fill="none" xmlns="http://www.w3.org/2000/svg">
  <defs>
    <linearGradient id="bgGradient" x1="164" y1="104" x2="864" y2="916" gradientUnits="userSpaceOnUse">
      <stop offset="0" stop-color="#27B7FF"/>
      <stop offset="0.48" stop-color="#32A8F4"/>
      <stop offset="1" stop-color="#B08BFF"/>
    </linearGradient>
    <radialGradient id="bgGlow" cx="0" cy="0" r="1" gradientUnits="userSpaceOnUse" gradientTransform="translate(350 250) rotate(58) scale(730)">
      <stop offset="0" stop-color="#FFFFFF" stop-opacity="0.42"/>
      <stop offset="0.52" stop-color="#99E8FF" stop-opacity="0.14"/>
      <stop offset="1" stop-color="#7157D9" stop-opacity="0"/>
    </radialGradient>
    <linearGradient id="glyphGradient" x1="172" y1="142" x2="864" y2="842" gradientUnits="userSpaceOnUse">
      <stop offset="0" stop-color="#FFFFFF"/>
      <stop offset="0.5" stop-color="#E8FCFF"/>
      <stop offset="1" stop-color="#B9EEFF"/>
    </linearGradient>
    <linearGradient id="accentGradient" x1="636" y1="116" x2="914" y2="388" gradientUnits="userSpaceOnUse">
      <stop offset="0" stop-color="#FFF8D8"/>
      <stop offset="0.52" stop-color="#FFD76A"/>
      <stop offset="1" stop-color="#F2A11F"/>
    </linearGradient>
    <filter id="softShadow" x="72" y="88" width="880" height="800" filterUnits="userSpaceOnUse" color-interpolation-filters="sRGB">
      <feDropShadow dx="0" dy="24" stdDeviation="34" flood-color="#0869B8" flood-opacity="0.22"/>
      <feDropShadow dx="0" dy="4" stdDeviation="10" flood-color="#0C7BC7" flood-opacity="0.16"/>
    </filter>
    <filter id="sparkGlow" x="592" y="88" width="352" height="336" filterUnits="userSpaceOnUse" color-interpolation-filters="sRGB">
      <feDropShadow dx="0" dy="0" stdDeviation="14" flood-color="#FFE08A" flood-opacity="0.72"/>
      <feDropShadow dx="0" dy="14" stdDeviation="18" flood-color="#D98712" flood-opacity="0.24"/>
    </filter>
    <clipPath id="appClip">
      <rect width="1024" height="1024" rx="224"/>
    </clipPath>
  </defs>

  <g clip-path="url(#appClip)">
    <rect width="1024" height="1024" rx="224" fill="url(#bgGradient)"/>
    <rect width="1024" height="1024" rx="224" fill="url(#bgGlow)"/>
    <circle cx="276" cy="774" r="190" fill="#5B7CFF" fill-opacity="0.1"/>

    <g filter="url(#softShadow)">
      <path d="M576 192v64H352A160 160 0 0 0 192 416v192A160 160 0 0 0 352 768h320A160 160 0 0 0 832 608v-192h64v192a224 224 0 0 1-224 224h-320A224 224 0 0 1 128 608v-192A224 224 0 0 1 352 192H576zM649.344 409.344l45.312 45.312-3.52 3.456-39.168 39.168-12.608 12.608L637.248 512l57.408 57.344-45.312 45.312-80-80a32 32 0 0 1 0-45.312l17.28-17.28 20.096-20.032 21.12-21.184 3.84-3.712 14.208-14.272 3.456-3.52zM432 416v192H352v-192h80z" fill="url(#glyphGradient)"/>
    </g>

    <g filter="url(#sparkGlow)">
      <path d="M783.488 123.968c8.128 31.168 21.824 56.192 41.088 75.52 19.2 19.2 44.288 32.896 75.52 41.024 15.872 4.16 15.872 26.816 0 30.976-31.232 8.128-56.32 21.824-75.52 41.088-19.2 19.2-32.96 44.288-41.088 75.52-4.16 15.872-26.816 15.872-30.976 0-8.128-31.232-21.824-56.32-41.088-75.52-19.2-19.2-44.288-32.96-75.52-41.088-15.872-4.16-15.872-26.816 0-30.976 31.232-8.128 56.32-21.824 75.52-41.088 19.2-19.2 32.96-44.288 41.088-75.52 4.16-15.872 26.816-15.872 30.976 0z" fill="url(#accentGradient)"/>
    </g>

    <path d="M226 680c34 60 88 92 162 92h252c72 0 126-32 160-92" stroke="#FFFFFF" stroke-opacity="0.2" stroke-width="18" stroke-linecap="round"/>
    <path d="M236 348c32-56 82-86 150-86h168" stroke="#FFFFFF" stroke-opacity="0.28" stroke-width="18" stroke-linecap="round"/>
  </g>
</svg>
