<svg xmlns="http://www.w3.org/2000/svg" width="512" height="512" viewBox="0 0 512 512">
<defs>
  <linearGradient id="bg" x1="0" y1="0" x2="1" y2="1"><stop stop-color="#fff0bf"/><stop offset="1" stop-color="#e8c785"/></linearGradient>
  <radialGradient id="fur" cx="35%" cy="20%" r="80%"><stop stop-color="#fff8ee"/><stop offset="0.5" stop-color="#b7794b"/><stop offset="1" stop-color="#d97706"/></radialGradient>
  <filter id="softShadow" x="-30%" y="-30%" width="160%" height="160%"><feDropShadow dx="0" dy="14" stdDeviation="14" flood-color="#212121" flood-opacity="0.16"/></filter>
</defs>
<rect x="8" y="8" width="496" height="496" rx="98" fill="url(#bg)"/>
<circle cx="122" cy="104" r="48" fill="#fff" opacity="0.24"/>
<circle cx="170" cy="177" r="62" fill="#b7794b" filter="url(#softShadow)"/><circle cx="342" cy="177" r="62" fill="#b7794b" filter="url(#softShadow)"/>
<ellipse cx="256" cy="272" rx="145" ry="154" fill="url(#fur)" filter="url(#softShadow)"/>
<path d="M164 239 C184 194 237 193 251 226 C224 232 197 250 164 239Z" fill="#fff" opacity="0.55"/>
<ellipse cx="206" cy="257" rx="27" ry="36" fill="#28313d"/><ellipse cx="306" cy="257" rx="27" ry="36" fill="#28313d"/>
<circle cx="196" cy="244" r="9" fill="#fff" opacity="0.94"/><circle cx="296" cy="244" r="9" fill="#fff" opacity="0.94"/>
<ellipse cx="256" cy="310" rx="58" ry="44" fill="#fff" opacity="0.7"/>
<path d="M236 296 C246 287 266 287 276 296 C268 306 244 306 236 296Z" fill="#3b2617"/>
<path d="M256 303 C256 323 242 331 229 322" fill="none" stroke="#3b2617" stroke-width="7" stroke-linecap="round"/>
<path d="M256 303 C256 323 270 331 283 322" fill="none" stroke="#3b2617" stroke-width="7" stroke-linecap="round"/>
<ellipse cx="174" cy="307" rx="25" ry="16" fill="#ff7a90" opacity="0.22"/>
<ellipse cx="338" cy="307" rx="25" ry="16" fill="#ff7a90" opacity="0.22"/>
<path d="M122 454 C151 391 205 365 256 365 C309 365 361 391 390 454Z" fill="#d97706" opacity="0.82"/>
</svg>