<svg xmlns="http://www.w3.org/2000/svg" width="512" height="512" viewBox="0 0 512 512">
<defs>
  <linearGradient id="bg" x1="0" y1="0" x2="1" y2="1"><stop stop-color="#eadcff"/><stop offset="1" stop-color="#ffd5ef"/></linearGradient>
  <radialGradient id="skin" cx="35%" cy="26%" r="78%"><stop stop-color="#fff0df"/><stop offset="0.45" stop-color="#ffd2bc"/><stop offset="1" stop-color="#e8a57f"/></radialGradient>
  <filter id="softShadow" x="-30%" y="-30%" width="160%" height="160%"><feDropShadow dx="0" dy="14" stdDeviation="14" flood-color="#212121" flood-opacity="0.18"/></filter>
  <filter id="glow" x="-30%" y="-30%" width="160%" height="160%"><feGaussianBlur stdDeviation="8" result="b"/><feMerge><feMergeNode in="b"/><feMergeNode in="SourceGraphic"/></feMerge></filter>
</defs>
<rect x="8" y="8" width="496" height="496" rx="98" fill="url(#bg)"/>
<circle cx="116" cy="96" r="52" fill="#fff" opacity="0.26"/>
<circle cx="418" cy="124" r="34" fill="#fff" opacity="0.18"/>
<path d="M105 471 C128 377 191 337 258 337 C329 337 391 379 412 471Z" fill="#8b5cf6" filter="url(#softShadow)"/>
<path d="M214 331 L214 402 C239 424 279 424 302 402 L302 331Z" fill="url(#skin)"/>
<path d="M134 268 C118 166 172 102 260 104 C354 106 405 176 382 286 C374 356 332 406 258 406 C184 406 142 350 134 268Z" fill="#2b1b3f" filter="url(#softShadow)"/>
<ellipse cx="258" cy="232" rx="106" ry="118" fill="url(#skin)" filter="url(#softShadow)"/>
<path d="M150 210 C199 127 310 116 371 199 C314 175 246 177 150 222Z" fill="#2b1b3f"/>
<ellipse cx="185" cy="254" rx="28" ry="17" fill="#ff7a90" opacity="0.28"/>
<ellipse cx="331" cy="254" rx="28" ry="17" fill="#ff7a90" opacity="0.28"/>
<g filter="url(#glow)">
  <ellipse cx="215" cy="232" rx="30" ry="38" fill="#253042"/>
  <ellipse cx="301" cy="232" rx="30" ry="38" fill="#253042"/>
  <ellipse cx="205" cy="219" rx="10" ry="13" fill="#fff" opacity="0.92"/>
  <ellipse cx="291" cy="219" rx="10" ry="13" fill="#fff" opacity="0.92"/>
  <circle cx="224" cy="247" r="7" fill="#72d7ff" opacity="0.65"/>
  <circle cx="310" cy="247" r="7" fill="#72d7ff" opacity="0.65"/>
</g>
<path d="M227 293 C247 316 287 314 307 291" fill="none" stroke="#7f2d2d" stroke-width="8" stroke-linecap="round"/>
<path d="M246 315 C260 324 281 321 293 310" fill="none" stroke="#fff" stroke-width="4" stroke-linecap="round" opacity="0.72"/>

<ellipse cx="258" cy="151" rx="126" ry="34" fill="#171717" filter="url(#softShadow)"/><path d="M162 150 C174 80 330 78 354 150 C310 174 213 174 162 150Z" fill="#232323"/>
</svg>